<?xml version="1.0" encoding="utf-8"?>
<!-- Generator: Adobe Illustrator 22.1.0, SVG Export Plug-In . SVG Version: 6.00 Build 0)  -->
<!DOCTYPE svg PUBLIC "-//W3C//DTD SVG 1.1//EN" "http://www.w3.org/Graphics/SVG/1.1/DTD/svg11.dtd" [
	<!ENTITY st0 "fill:#191919;">
]>
<svg version="1.1" id="レイヤー_1" xmlns="http://www.w3.org/2000/svg" xmlns:xlink="http://www.w3.org/1999/xlink" x="0px"
	 y="0px" viewBox="0 0 316.5 33.8" style="enable-background:new 0 0 316.5 33.8;" xml:space="preserve">
<g>
	<g>
		<path style="&st0;" d="M18.8,6.8c-3.8,0-6.7,0.8-8.9,2.5c-2.2,1.7-3.3,4.1-3.3,7.3c0,3.5,1.1,6.1,3.4,7.7c2.3,1.6,5.1,2.4,8.6,2.4
			v6.5c-0.3,0.1-0.7,0.1-1.2,0.1c-0.4,0-0.9,0-1.3,0C12.1,33.5,8.4,32,5,29c-3.4-3-5-7-5-12C0,12,1.6,7.9,4.9,4.9
			c3.2-3,7-4.5,11.4-4.5c0.6,0,1.1,0,1.5,0c0.4,0,0.7,0,1.1,0V6.8z"/>
		<path style="&st0;" d="M29.7,33.5h-6.5V0.6h6.5V33.5z"/>
		<path style="&st0;" d="M56.9,29.3c0,1.3-0.4,2.3-1.3,3.2c-0.9,0.9-1.9,1.3-2.9,1.3c-0.7,0-1.5-0.2-2.3-0.7
			c-0.8-0.4-1.3-1.1-1.6-1.9l-8.1-20.5l-0.4,0v22.6h-5.6V4.8c0-1.2,0.4-2.3,1.1-3.3c0.8-1,1.7-1.5,2.8-1.5c0.7,0,1.5,0.3,2.3,0.8
			c0.8,0.5,1.3,1.2,1.7,2l8.2,20.5h0.4V0.5h5.8V29.3z"/>
		<path style="&st0;" d="M77.2,33.4H66.5c-1.4,0-2.6-0.5-3.4-1.6c-0.9-1.1-1.3-2.3-1.3-3.7V6.1c0-1.6,0.4-3,1.1-4.1
			c0.7-1.1,1.7-1.6,2.9-1.6h11.4v6.5H68v5.9h8.7v6.4H68v7.5h9.1V33.4z"/>
		<path style="&st0;" d="M107,33.4h-4.9l0-23.3l-4.3,19.9c-0.3,1.2-0.6,2.1-1.1,2.7c-0.5,0.6-1.2,1-2.1,1c-1,0-1.7-0.3-2.2-1
			c-0.5-0.7-0.9-1.6-1.2-2.9l-4.8-19.4l0,23.1h-5V4.8c0-1.4,0.4-2.5,1.2-3.3c0.8-0.8,1.7-1.2,2.8-1.2c1,0,1.8,0.3,2.5,0.9
			c0.6,0.6,1.1,1.5,1.4,2.6L94.5,25l4.6-22.3c0.2-0.7,0.6-1.3,1.3-1.9c0.7-0.5,1.4-0.8,2.2-0.8c0.8,0,1.7,0.4,2.7,1.2
			c1.1,0.8,1.6,2,1.6,3.7V33.4z"/>
		<path style="&st0;" d="M118.9,21.8l2.9-14.3l2.6,14.3H118.9z M126.5,4.5c-0.4-1.3-1-2.3-1.9-3.2c-0.9-0.9-1.9-1.3-3.1-1.3
			c-1,0-1.9,0.4-2.7,1.2c-0.8,0.8-1.3,1.8-1.6,2.9l-8.2,29.2h6.5l1.7-6.3h8.9l1.6,6.3h6.6L126.5,4.5z"/>
	</g>
	<g>
		<path style="&st0;" d="M166.4,8.6c-1-0.8-2-1.4-3.1-1.8c-1-0.4-2.1-0.7-3.2-0.7c-1.1,0-2,0.3-2.9,1c-0.9,0.7-1.3,1.6-1.3,2.7
			c0,1.6,1.3,3,3.9,3.9c2.6,1,4.5,2,5.7,3c1.2,1,1.9,3.4,1.9,7c0,3.2-0.9,5.7-2.7,7.3c-1.8,1.6-4.1,2.5-6.8,2.5
			c-1.3,0-2.5-0.1-3.7-0.4c-1.2-0.3-2.5-0.7-3.8-1.3v-7c1.1,0.5,2.4,1,3.7,1.5c1.4,0.5,2.6,0.8,3.6,0.8c1.5,0,2.5-0.3,3.2-1
			c0.7-0.7,1-1.5,1-2.5c0-1.4-1.3-2.6-3.9-3.6c-2.6-1.1-4.6-2.2-6-3.3c-1.4-1.1-2.1-3.4-2.1-6.9c0-2.8,0.9-5.1,2.7-7
			c1.8-1.9,4.1-2.8,6.8-2.8c1.4,0,2.6,0.1,3.6,0.3c1.1,0.2,2.1,0.6,3.2,1.2V8.6z"/>
		<path style="&st0;" d="M191.3,22.4c0,2.9-1,5.6-3,7.9c-2,2.3-4.5,3.5-7.4,3.5c-2.5,0-4.8-1.1-6.9-3.2c-2.1-2.1-3.2-4.6-3.2-7.3
			V0.4h5.8v22.3c0,1.2,0.4,2.3,1.3,3.2c0.9,0.9,1.8,1.4,3,1.4c1.2,0,2.3-0.5,3.1-1.4c0.8-0.9,1.2-2,1.2-3.1V0.4h6.1V22.4z"/>
		<path style="&st0;" d="M216.5,29.3c0,1.3-0.4,2.3-1.2,3.2c-0.8,0.9-1.7,1.3-2.7,1.3c-0.7,0-1.4-0.2-2.1-0.6
			c-0.7-0.4-1.2-1.1-1.5-1.9l-7.4-20.5l-0.2,0v22.6h-5.2V4.8c0-1.2,0.3-2.3,1-3.3c0.7-1,1.6-1.5,2.6-1.5c0.7,0,1.3,0.3,2.1,0.8
			c0.7,0.5,1.2,1.2,1.5,2l7.6,20.5h0.4V0.5h5.3V29.3z"/>
		<path style="&st0;" d="M236.7,8.6c-1-0.8-2-1.4-3.1-1.8c-1-0.4-2.1-0.7-3.2-0.7c-1.1,0-2,0.3-2.9,1c-0.9,0.7-1.3,1.6-1.3,2.7
			c0,1.6,1.3,3,3.9,3.9c2.6,1,4.5,2,5.7,3c1.2,1,1.9,3.4,1.9,7c0,3.2-0.9,5.7-2.7,7.3c-1.8,1.6-4.1,2.5-6.8,2.5
			c-1.3,0-2.5-0.1-3.7-0.4c-1.2-0.3-2.5-0.7-3.8-1.3v-7c1.1,0.5,2.4,1,3.7,1.5c1.4,0.5,2.6,0.8,3.6,0.8c1.5,0,2.5-0.3,3.2-1
			c0.7-0.7,1-1.5,1-2.5c0-1.4-1.3-2.6-3.9-3.6c-2.6-1.1-4.6-2.2-6-3.3c-1.4-1.1-2.1-3.4-2.1-6.9c0-2.8,0.9-5.1,2.7-7
			c1.8-1.9,4.1-2.8,6.8-2.8c1.4,0,2.6,0.1,3.6,0.3c1.1,0.2,2.1,0.6,3.2,1.2V8.6z"/>
		<path style="&st0;" d="M262.1,33.4h-6V19.6h-8.7v13.7h-6V0.4h6v12.5h8.7V0.4h6V33.4z"/>
		<path style="&st0;" d="M273.1,33.5h-6V0.6h6V33.5z"/>
		<path style="&st0;" d="M298.3,29.3c0,1.3-0.4,2.3-1.2,3.2c-0.8,0.9-1.7,1.3-2.7,1.3c-0.7,0-1.4-0.2-2.1-0.6
			c-0.7-0.4-1.2-1.1-1.5-1.9l-7.4-20.5l-0.2,0v22.6h-5.2V4.8c0-1.2,0.3-2.3,1-3.3c0.7-1,1.6-1.5,2.6-1.5c0.7,0,1.4,0.3,2.1,0.8
			c0.7,0.5,1.2,1.2,1.5,2l7.6,20.5h0.4V0.5h5.3V29.3z"/>
		<path style="&st0;" d="M316.5,33.4h-9.8c-1.3,0-2.4-0.5-3.2-1.6c-0.8-1.1-1.2-2.3-1.2-3.7V6.1c0-1.6,0.3-3,1-4.1
			c0.7-1.1,1.5-1.6,2.6-1.6h10.6v6.5h-8.4v5.9h8v6.4h-8v7.5h8.4V33.4z"/>
	</g>
</g>
</svg>
